<svg width="24" height="25" viewBox="0 0 24 25" fill="none" xmlns="http://www.w3.org/2000/svg">
<mask id="mask0_2412_2120" style="mask-type:alpha" maskUnits="userSpaceOnUse" x="0" y="0" width="24" height="25">
<rect y="0.665039" width="24" height="24" fill="#D9D9D9"/>
</mask>
<g mask="url(#mask0_2412_2120)">
<path d="M9 12.165V10.665H15V12.165H9ZM10 15.165V13.665H14V15.165H10ZM9 22.665L7.65 18.115C6.85 17.4817 6.20833 16.69 5.725 15.74C5.24167 14.79 5 13.765 5 12.665C5 11.565 5.24167 10.54 5.725 9.59004C6.20833 8.64004 6.85 7.84837 7.65 7.21504L9 2.66504H15L16.35 7.21504C17.15 7.84837 17.7917 8.64004 18.275 9.59004C18.7583 10.54 19 11.565 19 12.665C19 13.765 18.7583 14.79 18.275 15.74C17.7917 16.69 17.15 17.4817 16.35 18.115L15 22.665H9ZM12 17.665C13.3833 17.665 14.5625 17.1775 15.5375 16.2025C16.5125 15.2275 17 14.0484 17 12.665C17 11.2817 16.5125 10.1025 15.5375 9.12754C14.5625 8.15254 13.3833 7.66504 12 7.66504C10.6167 7.66504 9.4375 8.15254 8.4625 9.12754C7.4875 10.1025 7 11.2817 7 12.665C7 14.0484 7.4875 15.2275 8.4625 16.2025C9.4375 17.1775 10.6167 17.665 12 17.665ZM10.1 5.91504C10.4333 5.83171 10.7542 5.76504 11.0625 5.71504C11.3708 5.66504 11.6833 5.64004 12 5.64004C12.3167 5.64004 12.6292 5.66504 12.9375 5.71504C13.2458 5.76504 13.5667 5.83171 13.9 5.91504L13.5 4.66504H10.5L10.1 5.91504ZM10.5 20.665H13.5L13.9 19.415C13.5667 19.4984 13.2458 19.5609 12.9375 19.6025C12.6292 19.6442 12.3167 19.665 12 19.665C11.6833 19.665 11.3708 19.6442 11.0625 19.6025C10.7542 19.5609 10.4333 19.4984 10.1 19.415L10.5 20.665Z" fill="#0270FD"/>
</g>
</svg>
