<svg width="24" height="25" viewBox="0 0 24 25" fill="none" xmlns="http://www.w3.org/2000/svg">
<mask id="mask0_2025_1707" style="mask-type:alpha" maskUnits="userSpaceOnUse" x="0" y="0" width="24" height="25">
<rect y="0.5" width="24" height="24" fill="#D9D9D9"/>
</mask>
<g mask="url(#mask0_2025_1707)">
<path d="M12 23.5L4.8 18.1C4.55 17.9167 4.35417 17.6833 4.2125 17.4C4.07083 17.1167 4 16.8167 4 16.5V4.5C4 3.95 4.19583 3.47917 4.5875 3.0875C4.97917 2.69583 5.45 2.5 6 2.5H18C18.55 2.5 19.0208 2.69583 19.4125 3.0875C19.8042 3.47917 20 3.95 20 4.5V16.5C20 16.8167 19.9292 17.1167 19.7875 17.4C19.6458 17.6833 19.45 17.9167 19.2 18.1L12 23.5ZM12 21L18 16.5V4.5H6V16.5L12 21ZM10.95 15.5L16.6 9.85L15.2 8.4L10.95 12.65L8.85 10.55L7.4 11.95L10.95 15.5Z" fill="#1877F2"/>
</g>
</svg>
