<svg width="25" height="24" viewBox="0 0 25 24" fill="none" xmlns="http://www.w3.org/2000/svg">
<mask id="mask0_2015_1377" style="mask-type:alpha" maskUnits="userSpaceOnUse" x="0" y="0" width="25" height="24">
<rect x="0.5" width="24" height="24" fill="#D9D9D9"/>
</mask>
<g mask="url(#mask0_2015_1377)">
<path d="M8 18C8.41667 18 8.77083 17.8542 9.0625 17.5625C9.35417 17.2708 9.5 16.9167 9.5 16.5C9.5 16.0833 9.35417 15.7292 9.0625 15.4375C8.77083 15.1458 8.41667 15 8 15C7.58333 15 7.22917 15.1458 6.9375 15.4375C6.64583 15.7292 6.5 16.0833 6.5 16.5C6.5 16.9167 6.64583 17.2708 6.9375 17.5625C7.22917 17.8542 7.58333 18 8 18ZM8 9C8.41667 9 8.77083 8.85417 9.0625 8.5625C9.35417 8.27083 9.5 7.91667 9.5 7.5C9.5 7.08333 9.35417 6.72917 9.0625 6.4375C8.77083 6.14583 8.41667 6 8 6C7.58333 6 7.22917 6.14583 6.9375 6.4375C6.64583 6.72917 6.5 7.08333 6.5 7.5C6.5 7.91667 6.64583 8.27083 6.9375 8.5625C7.22917 8.85417 7.58333 9 8 9ZM12.5 13.5C12.9167 13.5 13.2708 13.3542 13.5625 13.0625C13.8542 12.7708 14 12.4167 14 12C14 11.5833 13.8542 11.2292 13.5625 10.9375C13.2708 10.6458 12.9167 10.5 12.5 10.5C12.0833 10.5 11.7292 10.6458 11.4375 10.9375C11.1458 11.2292 11 11.5833 11 12C11 12.4167 11.1458 12.7708 11.4375 13.0625C11.7292 13.3542 12.0833 13.5 12.5 13.5ZM17 18C17.4167 18 17.7708 17.8542 18.0625 17.5625C18.3542 17.2708 18.5 16.9167 18.5 16.5C18.5 16.0833 18.3542 15.7292 18.0625 15.4375C17.7708 15.1458 17.4167 15 17 15C16.5833 15 16.2292 15.1458 15.9375 15.4375C15.6458 15.7292 15.5 16.0833 15.5 16.5C15.5 16.9167 15.6458 17.2708 15.9375 17.5625C16.2292 17.8542 16.5833 18 17 18ZM17 9C17.4167 9 17.7708 8.85417 18.0625 8.5625C18.3542 8.27083 18.5 7.91667 18.5 7.5C18.5 7.08333 18.3542 6.72917 18.0625 6.4375C17.7708 6.14583 17.4167 6 17 6C16.5833 6 16.2292 6.14583 15.9375 6.4375C15.6458 6.72917 15.5 7.08333 15.5 7.5C15.5 7.91667 15.6458 8.27083 15.9375 8.5625C16.2292 8.85417 16.5833 9 17 9ZM5.5 21C4.95 21 4.47917 20.8042 4.0875 20.4125C3.69583 20.0208 3.5 19.55 3.5 19V5C3.5 4.45 3.69583 3.97917 4.0875 3.5875C4.47917 3.19583 4.95 3 5.5 3H19.5C20.05 3 20.5208 3.19583 20.9125 3.5875C21.3042 3.97917 21.5 4.45 21.5 5V19C21.5 19.55 21.3042 20.0208 20.9125 20.4125C20.5208 20.8042 20.05 21 19.5 21H5.5ZM5.5 19H19.5V5H5.5V19Z" fill="#1877F2"/>
</g>
</svg>
