<?xml version="1.0" encoding="UTF-8" standalone="no"?>
<!-- Uploaded to: SVG Repo, www.svgrepo.com, Transformed by: SVG Repo Mixer Tools -->

<svg
   width="800px"
   height="800px"
   viewBox="0 0 24 24"
   fill="none"
   version="1.1"
   id="svg4"
   sodipodi:docname="chat-round-dots-svgrepo-com.svg"
   inkscape:version="1.4.2 (f4327f4, 2025-05-13)"
   xmlns:inkscape="http://www.inkscape.org/namespaces/inkscape"
   xmlns:sodipodi="http://sodipodi.sourceforge.net/DTD/sodipodi-0.dtd"
   xmlns="http://www.w3.org/2000/svg"
   xmlns:svg="http://www.w3.org/2000/svg">
  <defs
     id="defs4" />
  <sodipodi:namedview
     id="namedview4"
     pagecolor="#ffffff"
     bordercolor="#000000"
     borderopacity="0.25"
     inkscape:showpageshadow="2"
     inkscape:pageopacity="0.0"
     inkscape:pagecheckerboard="0"
     inkscape:deskcolor="#d1d1d1"
     inkscape:zoom="0.5241429"
     inkscape:cx="276.64211"
     inkscape:cy="569.50118"
     inkscape:window-width="1440"
     inkscape:window-height="837"
     inkscape:window-x="-8"
     inkscape:window-y="-8"
     inkscape:window-maximized="1"
     inkscape:current-layer="svg4" />
  <g
     id="SVGRepo_iconCarrier"
     style="fill:#c57070;fill-opacity:1">
    <path
       opacity="0.5"
       d="M 12,23 C 18.0751,23 23,18.0751 23,12 23,5.92487 18.0751,1 12,1 5.92487,1 1,5.92487 1,12 c 0,1.7596 0.41318,3.4228 1.14781,4.8977 0.19522,0.392 0.2602,0.84 0.14702,1.263 l -0.65517,2.4486 c -0.28441,1.063 0.68806,2.0354 1.75102,1.751 L 5.83932,21.7052 C 6.26233,21.592 6.71033,21.657 7.10228,21.8522 8.5772,22.5868 10.2404,23 12,23 Z"
       fill="#1C274C"
       id="path1"
       style="fill:#ffffff;fill-opacity:1;opacity:1"
       sodipodi:nodetypes="ssssccccccs" />
    <path
       d="M10.9 12.0004C10.9 12.6079 11.3925 13.1004 12 13.1004C12.6075 13.1004 13.1 12.6079 13.1 12.0004C13.1 11.3929 12.6075 10.9004 12 10.9004C11.3925 10.9004 10.9 11.3929 10.9 12.0004Z"
       fill="#1C274C"
       id="path2"
       style="fill:#0b2145;fill-opacity:1" />
    <path
       d="M6.5 12.0004C6.5 12.6079 6.99249 13.1004 7.6 13.1004C8.20751 13.1004 8.7 12.6079 8.7 12.0004C8.7 11.3929 8.20751 10.9004 7.6 10.9004C6.99249 10.9004 6.5 11.3929 6.5 12.0004Z"
       fill="#1C274C"
       id="path3"
       style="fill:#0b2145;fill-opacity:1" />
    <path
       d="M15.3 12.0004C15.3 12.6079 15.7925 13.1004 16.4 13.1004C17.0075 13.1004 17.5 12.6079 17.5 12.0004C17.5 11.3929 17.0075 10.9004 16.4 10.9004C15.7925 10.9004 15.3 11.3929 15.3 12.0004Z"
       fill="#1C274C"
       id="path4"
       style="fill:#0b2145;fill-opacity:1" />
  </g>
  <g
     id="SVGRepo_bgCarrier"
     stroke-width="0" />
  <g
     id="SVGRepo_tracerCarrier"
     stroke-linecap="round"
     stroke-linejoin="round" />
</svg>
