<svg width="25" height="24" viewBox="0 0 25 24" fill="none" xmlns="http://www.w3.org/2000/svg">
<path d="M12.5 22C18.023 22 22.5 17.523 22.5 12C22.5 6.477 18.023 2 12.5 2C6.977 2 2.5 6.477 2.5 12C2.5 13.379 2.78 14.693 3.284 15.888C3.563 16.548 3.702 16.878 3.72 17.128C3.737 17.378 3.663 17.652 3.516 18.201L2.5 22L6.299 20.984C6.848 20.837 7.122 20.764 7.372 20.78C7.622 20.798 7.952 20.937 8.612 21.216C9.84266 21.7343 11.1647 22.0009 12.5 22Z" stroke="white" stroke-width="2" stroke-linecap="round" stroke-linejoin="round"/>
<path d="M9.08793 12.377L9.95893 11.296C10.3259 10.84 10.7789 10.416 10.8159 9.808C10.8239 9.655 10.7159 8.967 10.5009 7.59C10.4159 7.049 9.90993 7 9.47293 7C8.90293 7 8.61793 7 8.33493 7.13C7.97693 7.293 7.60993 7.752 7.52893 8.137C7.46493 8.442 7.51293 8.652 7.60793 9.072C8.00993 10.855 8.95493 12.616 10.4189 14.081C11.8839 15.545 13.6449 16.49 15.4289 16.892C15.8489 16.987 16.0579 17.035 16.3629 16.971C16.7479 16.891 17.2069 16.523 17.3709 16.165C17.4999 15.882 17.4999 15.597 17.4999 15.027C17.4999 14.589 17.4509 14.084 16.9099 13.999C15.5329 13.783 14.8449 13.676 14.6919 13.684C14.0849 13.72 13.6599 14.174 13.2039 14.541L12.1229 15.411" stroke="white" stroke-width="2" stroke-linecap="round" stroke-linejoin="round"/>
</svg>
