<?xml version="1.0" encoding="UTF-8" standalone="no"?>
<svg
   width="22"
   height="22"
   viewBox="0 0 22 22"
   fill="none"
   version="1.1"
   id="svg2"
   sodipodi:docname="icon-cart-white.svg"
   xml:space="preserve"
   inkscape:version="1.4.2 (f4327f4, 2025-05-13)"
   xmlns:inkscape="http://www.inkscape.org/namespaces/inkscape"
   xmlns:sodipodi="http://sodipodi.sourceforge.net/DTD/sodipodi-0.dtd"
   xmlns="http://www.w3.org/2000/svg"
   xmlns:svg="http://www.w3.org/2000/svg"><defs
     id="defs2" /><sodipodi:namedview
     id="namedview2"
     pagecolor="#ffffff"
     bordercolor="#000000"
     borderopacity="0.25"
     inkscape:showpageshadow="2"
     inkscape:pageopacity="0.0"
     inkscape:pagecheckerboard="0"
     inkscape:deskcolor="#d1d1d1"
     inkscape:zoom="19.059742"
     inkscape:cx="9.3390562"
     inkscape:cy="9.7850223"
     inkscape:window-width="1440"
     inkscape:window-height="837"
     inkscape:window-x="-8"
     inkscape:window-y="-8"
     inkscape:window-maximized="1"
     inkscape:current-layer="svg2" /><g
     style="fill:none;stroke:#ffffff;stroke-opacity:1"
     id="g2"
     transform="matrix(1.0750018,0,0,1.085093,-1.7775889,-1.9654924)"><g
       id="SVGRepo_bgCarrier"
       stroke-width="0"
       style="stroke:#ffffff;stroke-opacity:1" /><g
       id="SVGRepo_tracerCarrier"
       stroke-linecap="round"
       stroke-linejoin="round"
       style="stroke:#ffffff;stroke-opacity:1" /><g
       id="SVGRepo_iconCarrier"
       style="stroke:#ffffff;stroke-opacity:1"><path
         d="M 6.29977,5 H 21 l -2,7 H 7.37671 M 20,16 H 8 L 6,3 H 3 m 6,17 c 0,0.5523 -0.44772,1 -1,1 -0.55228,0 -1,-0.4477 -1,-1 0,-0.5523 0.44772,-1 1,-1 0.55228,0 1,0.4477 1,1 z m 11,0 c 0,0.5523 -0.4477,1 -1,1 -0.5523,0 -1,-0.4477 -1,-1 0,-0.5523 0.4477,-1 1,-1 0.5523,0 1,0.4477 1,1 z"
         stroke="#ffffff"
         stroke-width="2"
         stroke-linecap="round"
         stroke-linejoin="round"
         id="path1-0"
         style="stroke:#ffffff;stroke-opacity:1" /></g></g></svg>
