<svg width="20" height="20" viewBox="0 0 20 20" fill="none" xmlns="http://www.w3.org/2000/svg">
<path d="M10 18.75C14.8326 18.75 18.75 14.8326 18.75 10C18.75 5.16738 14.8326 1.25 10 1.25C5.16738 1.25 1.25 5.16738 1.25 10C1.25 11.2066 1.495 12.3564 1.936 13.402C2.18012 13.9795 2.30175 14.2683 2.3175 14.487C2.33238 14.7058 2.26763 14.9455 2.139 15.4259L1.25 18.75L4.57412 17.861C5.0545 17.7324 5.29425 17.6685 5.513 17.6825C5.73175 17.6983 6.0205 17.8199 6.598 18.064C7.67482 18.5175 8.83157 18.7508 10 18.75Z" stroke="white" stroke-width="1.3125" stroke-linecap="round" stroke-linejoin="round"/>
<path d="M7.01465 10.3299L7.77678 9.384C8.0979 8.985 8.49428 8.614 8.52665 8.082C8.53365 7.94812 8.43915 7.34612 8.25103 6.14125C8.17665 5.66788 7.7339 5.625 7.35153 5.625C6.85278 5.625 6.6034 5.625 6.35578 5.73875C6.04253 5.88138 5.7214 6.283 5.65053 6.61988C5.59453 6.88675 5.63653 7.0705 5.71965 7.438C6.0714 8.99812 6.89828 10.539 8.17928 11.8209C9.46115 13.1019 11.002 13.9287 12.563 14.2805C12.9305 14.3636 13.1134 14.4056 13.3803 14.3496C13.7172 14.2796 14.1188 13.9576 14.2623 13.6444C14.3752 13.3968 14.3752 13.1474 14.3752 12.6486C14.3752 12.2654 14.3323 11.8235 13.8589 11.7491C12.654 11.5601 12.052 11.4665 11.9182 11.4735C11.387 11.505 11.0152 11.9022 10.6162 12.2234L9.67028 12.9846" stroke="white" stroke-width="1.3125" stroke-linecap="round" stroke-linejoin="round"/>
</svg>
