<svg width="24" height="25" viewBox="0 0 24 25" fill="none" xmlns="http://www.w3.org/2000/svg">
<mask id="mask0_2035_198" style="mask-type:alpha" maskUnits="userSpaceOnUse" x="0" y="0" width="24" height="25">
<rect y="0.5" width="24" height="24" fill="#D9D9D9"/>
</mask>
<g mask="url(#mask0_2035_198)">
<path d="M8 23.5C7.45 23.5 6.97917 23.3042 6.5875 22.9125C6.19583 22.5208 6 22.05 6 21.5V17.5H8V18.5H18V6.5H8V7.5H6V3.5C6 2.95 6.19583 2.47917 6.5875 2.0875C6.97917 1.69583 7.45 1.5 8 1.5H18C18.55 1.5 19.0208 1.69583 19.4125 2.0875C19.8042 2.47917 20 2.95 20 3.5V21.5C20 22.05 19.8042 22.5208 19.4125 22.9125C19.0208 23.3042 18.55 23.5 18 23.5H8ZM8 20.5V21.5H18V20.5H8ZM4.4 17.5L3 16.1L8.6 10.5H5V8.5H12V15.5H10V11.9L4.4 17.5ZM8 4.5H18V3.5H8V4.5Z" fill="#0270FD"/>
</g>
</svg>
