<?xml version="1.0" encoding="UTF-8"?>
<svg xmlns="http://www.w3.org/2000/svg" xmlns:xlink="http://www.w3.org/1999/xlink" width="850.394pt" height="425.197pt" viewBox="0 0 850.394 425.197" version="1.1">
<g id="surface1">
<path style=" stroke:none;fill-rule:nonzero;fill:rgb(1.727295%,2.270508%,2.323914%);fill-opacity:1;" d="M 403.3125 305.042969 C 396.417969 309.988281 387.511719 312.289062 377.835938 312.289062 C 352.933594 312.289062 342.398438 299.820312 342.304688 287.140625 C 342.207031 274.394531 353.605469 261.4375 377.835938 261.4375 C 386.9375 261.4375 395.554688 263.949219 402.449219 268.890625 L 394.023438 274.8125 C 389.617188 271.679688 383.679688 270.214844 377.835938 270.214844 C 361.652344 270.214844 354.660156 278.992188 354.753906 287.140625 C 354.851562 295.222656 361.269531 303.648438 377.835938 303.648438 C 383.679688 303.648438 390.285156 301.910156 394.691406 298.703125 Z M 403.3125 305.042969 "/>
<path style=" stroke:none;fill-rule:nonzero;fill:rgb(1.727295%,2.270508%,2.323914%);fill-opacity:1;" d="M 418.0625 294.039062 C 418.0625 299.261719 422.375 304.136719 430.898438 304.136719 C 439.421875 304.136719 443.730469 299.261719 443.730469 294.039062 C 443.730469 288.882812 438.75 283.867188 430.898438 283.867188 C 422.46875 283.867188 418.0625 288.882812 418.0625 294.039062 M 455.511719 294.039062 C 455.511719 303.929688 446.222656 311.9375 430.898438 311.9375 C 415.574219 311.9375 406.378906 303.929688 406.378906 294.039062 C 406.378906 284.214844 415.765625 276.136719 430.800781 276.136719 C 445.839844 276.136719 455.511719 284.214844 455.511719 294.039062 "/>
<path style=" stroke:none;fill-rule:nonzero;fill:rgb(1.727295%,2.270508%,2.323914%);fill-opacity:1;" d="M 498.324219 311.171875 L 498.324219 293.203125 C 498.324219 287.976562 494.398438 284.007812 486.925781 284.007812 C 479.742188 284.007812 474.859375 288.394531 474.859375 293.621094 L 474.859375 311.171875 L 463.269531 311.171875 L 463.269531 276.765625 L 473.710938 276.765625 L 474.476562 281.429688 C 479.265625 278.019531 484.054688 276.277344 489.992188 276.277344 C 501.101562 276.277344 510.007812 282.335938 510.007812 293.132812 L 510.007812 311.171875 Z M 498.324219 311.171875 "/>
<path style=" stroke:none;fill-rule:nonzero;fill:rgb(1.727295%,2.270508%,2.323914%);fill-opacity:1;" d="M 550.90625 285.957031 C 547.554688 283.660156 543.726562 282.894531 539.222656 282.894531 C 533.667969 282.894531 530.601562 284.148438 530.601562 286.308594 C 530.601562 288.535156 533.378906 289.789062 539.414062 290.066406 C 548.320312 290.484375 559.625 291.949219 559.625 301.074219 C 559.625 307.132812 552.824219 312.355469 539.320312 312.355469 C 531.847656 312.355469 524.378906 311.453125 517.480469 306.226562 L 523.230469 300.167969 C 526.582031 302.882812 534.242188 304.902344 539.511719 304.972656 C 543.914062 305.042969 548.035156 303.371094 548.035156 300.863281 C 548.035156 298.496094 545.351562 297.519531 538.648438 297.242188 C 529.742188 296.753906 519.109375 294.386719 519.109375 286.585938 C 519.109375 278.644531 530.410156 275.859375 539.03125 275.859375 C 546.40625 275.859375 551.960938 276.902344 557.421875 280.386719 Z M 550.90625 285.957031 "/>
<path style=" stroke:none;fill-rule:nonzero;fill:rgb(1.727295%,2.270508%,2.323914%);fill-opacity:1;" d="M 604.449219 262.136719 L 590.65625 262.136719 L 583.570312 271.609375 L 583.570312 272.027344 L 593.914062 272.027344 L 604.449219 262.484375 Z M 589.410156 283.867188 C 580.984375 283.867188 576.578125 288.882812 576.578125 294.039062 C 576.578125 299.261719 580.886719 304.136719 589.410156 304.136719 C 597.9375 304.136719 602.246094 299.261719 602.246094 294.039062 C 602.246094 288.882812 597.265625 283.867188 589.410156 283.867188 M 589.316406 276.136719 C 604.351562 276.136719 614.027344 284.214844 614.027344 294.039062 C 614.027344 303.929688 604.734375 311.941406 589.410156 311.941406 C 574.085938 311.941406 564.890625 303.929688 564.890625 294.039062 C 564.890625 284.214844 574.277344 276.136719 589.316406 276.136719 "/>
<path style=" stroke:none;fill-rule:nonzero;fill:rgb(1.727295%,2.270508%,2.323914%);fill-opacity:1;" d="M 632.894531 276.832031 L 633.757812 280.804688 C 637.398438 276.554688 642.28125 275.925781 647.070312 275.925781 C 651.953125 275.925781 656.648438 277.320312 659.234375 279.203125 L 653.964844 286.585938 C 651.570312 285.121094 649.367188 284.355469 645.535156 284.355469 C 639.40625 284.355469 633.757812 286.722656 633.757812 293.0625 L 633.757812 311.171875 L 622.070312 311.171875 L 622.070312 276.832031 Z M 632.894531 276.832031 "/>
<path style=" stroke:none;fill-rule:nonzero;fill:rgb(1.727295%,2.270508%,2.323914%);fill-opacity:1;" d="M 704.152344 306.785156 C 698.691406 310.6875 692.945312 312.21875 685.953125 312.21875 C 672.257812 312.21875 660.859375 306.226562 660.859375 294.039062 C 660.859375 281.847656 672.257812 275.859375 685.953125 275.859375 C 692.660156 275.859375 697.832031 277.25 703.003906 280.941406 L 695.628906 286.585938 C 692.851562 284.773438 689.402344 283.867188 686.144531 283.867188 C 678.292969 283.867188 672.546875 288.046875 672.546875 294.039062 C 672.546875 300.585938 678.675781 304.070312 685.953125 304.070312 C 689.691406 304.070312 693.425781 303.300781 696.296875 301.210938 Z M 704.152344 306.785156 "/>
<path style=" stroke:none;fill-rule:nonzero;fill:rgb(1.727295%,2.270508%,2.323914%);fill-opacity:1;" d="M 709.324219 311.171875 L 721.011719 311.171875 L 721.011719 276.695312 L 709.324219 276.695312 Z M 722.0625 267.152344 C 722.0625 273.769531 708.273438 273.769531 708.273438 267.152344 C 708.273438 260.535156 722.0625 260.535156 722.0625 267.152344 "/>
<path style=" stroke:none;fill-rule:nonzero;fill:rgb(1.727295%,2.270508%,2.323914%);fill-opacity:1;" d="M 742.078125 294.039062 C 742.078125 299.261719 746.390625 304.136719 754.914062 304.136719 C 763.4375 304.136719 767.746094 299.261719 767.746094 294.039062 C 767.746094 288.882812 762.769531 283.867188 754.914062 283.867188 C 746.484375 283.867188 742.078125 288.882812 742.078125 294.039062 M 779.527344 294.039062 C 779.527344 303.929688 770.238281 311.9375 754.914062 311.9375 C 739.589844 311.9375 730.394531 303.929688 730.394531 294.039062 C 730.394531 284.214844 739.78125 276.136719 754.816406 276.136719 C 769.855469 276.136719 779.527344 284.214844 779.527344 294.039062 "/>
<path style=" stroke:none;fill-rule:evenodd;fill:rgb(35.444641%,78.890991%,95.751953%);fill-opacity:1;" d="M 342.265625 238.800781 L 377.753906 238.800781 L 412.542969 215.265625 L 415.683594 218.265625 L 425.046875 226.636719 C 434.425781 234.703125 444.941406 238.628906 457.175781 238.628906 L 488.203125 238.628906 C 467.890625 221.617188 461.292969 215.9375 440.980469 198.925781 L 441.0625 198.863281 L 439.179688 197.246094 L 490.027344 162.84375 L 451.160156 162.84375 L 379.671875 211.210938 L 379.671875 139.5 L 342.265625 139.5 Z M 342.265625 238.800781 "/>
<path style=" stroke:none;fill-rule:evenodd;fill:rgb(35.444641%,78.890991%,95.751953%);fill-opacity:1;" d="M 631.582031 238.800781 L 667.070312 238.800781 L 701.855469 215.265625 L 704.996094 218.265625 L 714.363281 226.636719 C 723.742188 234.703125 734.257812 238.628906 746.488281 238.628906 L 777.515625 238.628906 C 757.203125 221.617188 750.609375 215.9375 730.296875 198.925781 L 730.375 198.863281 L 728.496094 197.246094 L 779.339844 162.84375 L 740.472656 162.84375 L 668.984375 211.210938 L 668.984375 139.5 L 631.582031 139.5 Z M 631.582031 238.800781 "/>
<path style=" stroke:none;fill-rule:evenodd;fill:rgb(35.444641%,78.890991%,95.751953%);fill-opacity:1;" d="M 608.691406 238.628906 L 545.378906 238.628906 L 545.378906 238.679688 L 488.121094 238.679688 L 496.175781 230.371094 C 500.902344 225.492188 506.871094 222.40625 513.730469 221.953125 L 587.886719 221.953125 C 591.367188 221.953125 594.207031 219.09375 594.207031 215.59375 C 594.207031 212.09375 591.363281 209.230469 587.886719 209.230469 L 511.011719 209.230469 C 498.421875 209.230469 488.125 198.867188 488.125 186.199219 C 488.125 173.53125 498.421875 163.164062 511.011719 163.164062 L 574.324219 163.164062 L 566.480469 162.84375 L 631.582031 162.84375 L 631.273438 163.164062 L 631.582031 163.164062 L 631.125 163.324219 L 623.527344 171.289062 C 618.800781 176.242188 612.832031 179.378906 605.972656 179.839844 L 531.816406 179.839844 C 528.339844 179.839844 525.492188 182.703125 525.492188 186.199219 C 525.492188 189.699219 528.335938 192.558594 531.816406 192.558594 L 608.691406 192.558594 C 621.28125 192.558594 631.578125 202.929688 631.578125 215.59375 C 631.578125 228.257812 621.273438 238.628906 608.691406 238.628906 "/>
<path style=" stroke:none;fill-rule:nonzero;fill:rgb(35.444641%,78.890991%,95.751953%);fill-opacity:1;" d="M 179.898438 113.230469 C 178.542969 113.503906 177.191406 113.890625 175.898438 114.40625 C 174.59375 114.933594 173.335938 115.59375 172.136719 116.378906 C 170.941406 117.167969 169.808594 118.085938 168.757812 119.128906 L 157.902344 129.984375 C 156.996094 130.890625 157.628906 132.445312 158.914062 132.445312 L 209.144531 132.445312 C 210.425781 132.445312 211.058594 130.890625 210.152344 129.984375 L 199.300781 119.128906 C 198.25 118.085938 197.117188 117.167969 195.921875 116.378906 C 194.722656 115.59375 193.460938 114.933594 192.160156 114.40625 C 190.867188 113.890625 189.515625 113.503906 188.160156 113.230469 C 186.792969 112.972656 185.410156 112.839844 184.027344 112.839844 C 182.648438 112.839844 181.265625 112.972656 179.898438 113.230469 M 233.4375 139.640625 C 233.117188 139.640625 232.84375 139.738281 232.617188 139.894531 C 231.9375 140.375 231.753906 141.417969 232.433594 142.101562 L 267.925781 177.59375 C 268.039062 177.707031 268.160156 177.796875 268.292969 177.867188 C 268.808594 178.132812 269.421875 178.039062 269.847656 177.707031 C 270.058594 177.539062 270.230469 177.308594 270.320312 177.035156 C 270.363281 176.898438 270.386719 176.746094 270.386719 176.585938 L 270.386719 161.226562 C 270.386719 158.261719 269.78125 155.425781 268.683594 152.847656 C 268.132812 151.558594 267.464844 150.328125 266.6875 149.179688 C 264.742188 146.304688 262.125 143.921875 259.070312 142.257812 C 256.007812 140.585938 252.507812 139.640625 248.796875 139.640625 Z M 157.183594 139.640625 C 154.320312 139.640625 151.519531 140.210938 148.925781 141.28125 C 146.332031 142.359375 143.949219 143.9375 141.929688 145.957031 L 106.089844 181.796875 C 105.417969 182.46875 104.78125 183.171875 104.183594 183.90625 C 102.988281 185.363281 101.945312 186.933594 101.058594 188.585938 C 98.855469 192.71875 97.667969 197.367188 97.667969 202.132812 L 97.667969 260.585938 C 97.667969 260.964844 97.746094 261.339844 97.886719 261.6875 C 98.035156 262.035156 98.246094 262.355469 98.519531 262.628906 L 133.410156 297.519531 L 146.5625 310.6875 L 146.691406 310.816406 C 146.953125 311.046875 147.285156 311.175781 147.644531 311.175781 C 147.800781 311.175781 147.945312 311.148438 148.089844 311.105469 C 148.132812 311.089844 148.160156 311.078125 148.203125 311.058594 C 156.480469 308.039062 162.4375 300.066406 162.4375 290.765625 L 162.4375 269.179688 L 205.617188 269.179688 L 205.617188 290.765625 C 205.617188 300.066406 211.578125 308.039062 219.851562 311.058594 C 219.894531 311.078125 219.925781 311.089844 219.96875 311.105469 C 220.109375 311.148438 220.257812 311.175781 220.414062 311.175781 C 220.773438 311.175781 221.105469 311.046875 221.367188 310.816406 L 221.496094 310.6875 L 234.648438 297.519531 L 269.539062 262.628906 C 269.8125 262.355469 270.023438 262.035156 270.167969 261.6875 C 270.3125 261.339844 270.386719 260.964844 270.386719 260.585938 L 270.386719 202.132812 C 270.386719 197.367188 269.203125 192.71875 267 188.585938 C 266.113281 186.933594 265.074219 185.363281 263.875 183.90625 C 263.277344 183.171875 262.640625 182.46875 261.96875 181.796875 L 226.128906 145.957031 C 224.105469 143.9375 221.722656 142.359375 219.128906 141.28125 C 216.539062 140.210938 213.734375 139.640625 210.871094 139.640625 Z M 237.667969 254.0625 C 236.539062 254.019531 235.472656 253.757812 234.496094 253.324219 C 233.847656 253.035156 233.238281 252.664062 232.6875 252.234375 C 232.132812 251.800781 231.632812 251.300781 231.199219 250.746094 C 230.113281 249.363281 229.445312 247.640625 229.371094 245.765625 C 229.34375 245.015625 229.410156 244.242188 229.582031 243.457031 C 229.847656 242.265625 230.375 241.160156 231.09375 240.203125 C 232.296875 238.617188 234.042969 237.449219 236.03125 237.007812 C 237.996094 236.574219 239.882812 236.8125 241.511719 237.535156 C 242.160156 237.824219 242.765625 238.191406 243.320312 238.625 C 244.703125 239.707031 245.75 241.203125 246.273438 242.929688 C 246.480469 243.617188 246.605469 244.339844 246.632812 245.089844 C 246.664062 245.839844 246.597656 246.613281 246.421875 247.402344 C 246.246094 248.195312 245.957031 248.953125 245.566406 249.652344 C 245.179688 250.347656 244.6875 250.992188 244.128906 251.554688 C 243.5625 252.117188 242.921875 252.601562 242.222656 252.992188 C 241.527344 253.378906 240.769531 253.671875 239.976562 253.847656 C 239.300781 253.996094 238.636719 254.070312 237.988281 254.070312 C 237.878906 254.070312 237.769531 254.070312 237.667969 254.0625 M 129.71875 254.0625 C 128.589844 254.019531 127.523438 253.757812 126.546875 253.324219 C 125.898438 253.035156 125.289062 252.664062 124.738281 252.234375 C 124.183594 251.800781 123.683594 251.300781 123.25 250.746094 C 122.164062 249.363281 121.496094 247.640625 121.425781 245.765625 C 121.394531 245.015625 121.460938 244.242188 121.632812 243.457031 C 121.898438 242.265625 122.425781 241.160156 123.148438 240.203125 C 124.347656 238.617188 126.09375 237.449219 128.082031 237.007812 C 130.046875 236.574219 131.9375 236.8125 133.5625 237.535156 C 134.210938 237.824219 134.820312 238.191406 135.371094 238.625 C 136.757812 239.707031 137.800781 241.203125 138.324219 242.929688 C 138.53125 243.617188 138.660156 244.339844 138.6875 245.089844 C 138.714844 245.839844 138.648438 246.613281 138.472656 247.402344 C 138.296875 248.195312 138.003906 248.953125 137.617188 249.652344 C 137.226562 250.347656 136.742188 250.992188 136.179688 251.554688 C 135.617188 252.117188 134.972656 252.601562 134.277344 252.992188 C 133.578125 253.378906 132.820312 253.671875 132.027344 253.847656 C 131.351562 253.996094 130.6875 254.070312 130.042969 254.070312 C 129.929688 254.070312 129.824219 254.070312 129.71875 254.0625 M 119.257812 139.640625 C 116.289062 139.640625 113.457031 140.246094 110.878906 141.34375 C 109.585938 141.890625 108.359375 142.5625 107.210938 143.339844 C 104.335938 145.285156 101.953125 147.902344 100.285156 150.960938 C 98.617188 154.019531 97.667969 157.519531 97.667969 161.226562 L 97.667969 176.585938 C 97.667969 176.90625 97.765625 177.1875 97.929688 177.410156 C 98.40625 178.089844 99.449219 178.277344 100.132812 177.59375 L 135.625 142.101562 C 135.738281 141.984375 135.828125 141.867188 135.894531 141.738281 C 136.164062 141.21875 136.074219 140.605469 135.738281 140.179688 C 135.570312 139.964844 135.339844 139.796875 135.066406 139.707031 C 134.925781 139.664062 134.777344 139.640625 134.617188 139.640625 Z M 278.472656 199.558594 C 278.097656 199.710938 277.785156 200.019531 277.652344 200.433594 C 277.605469 200.570312 277.585938 200.722656 277.585938 200.882812 L 277.585938 251.113281 C 277.585938 251.753906 277.972656 252.234375 278.472656 252.441406 C 278.597656 252.488281 278.730469 252.523438 278.867188 252.539062 C 279.273438 252.585938 279.707031 252.460938 280.046875 252.125 L 290.898438 241.269531 C 291.945312 240.21875 292.863281 239.085938 293.652344 237.886719 C 296.007812 234.296875 297.191406 230.148438 297.191406 226 C 297.191406 224.613281 297.058594 223.234375 296.796875 221.871094 C 296.667969 221.1875 296.503906 220.511719 296.304688 219.839844 C 295.910156 218.507812 295.386719 217.203125 294.730469 215.945312 C 293.75 214.066406 292.46875 212.300781 290.898438 210.726562 L 280.046875 199.875 C 279.820312 199.648438 279.550781 199.519531 279.28125 199.46875 C 279.195312 199.457031 279.117188 199.449219 279.03125 199.449219 C 278.839844 199.449219 278.648438 199.488281 278.472656 199.558594 M 88.777344 199.46875 C 88.503906 199.519531 88.238281 199.648438 88.011719 199.875 L 77.160156 210.726562 C 75.585938 212.300781 74.308594 214.066406 73.328125 215.945312 C 72.667969 217.203125 72.144531 218.507812 71.75 219.839844 C 71.554688 220.511719 71.390625 221.1875 71.257812 221.871094 C 70.996094 223.234375 70.867188 224.613281 70.867188 226 C 70.867188 230.148438 72.046875 234.296875 74.40625 237.886719 C 75.195312 239.085938 76.113281 240.21875 77.160156 241.269531 L 88.011719 252.125 C 88.351562 252.460938 88.785156 252.585938 89.1875 252.539062 C 89.328125 252.523438 89.457031 252.488281 89.582031 252.441406 C 90.085938 252.234375 90.472656 251.753906 90.472656 251.113281 L 90.472656 200.882812 C 90.472656 200.722656 90.449219 200.570312 90.40625 200.433594 C 90.269531 200.019531 89.957031 199.710938 89.582031 199.558594 C 89.410156 199.488281 89.21875 199.449219 89.027344 199.449219 C 88.941406 199.449219 88.863281 199.457031 88.777344 199.46875 M 268.292969 274.132812 C 268.160156 274.199219 268.039062 274.289062 267.925781 274.402344 L 232.433594 309.898438 C 231.527344 310.800781 232.160156 312.359375 233.4375 312.359375 L 248.796875 312.359375 C 260.671875 312.359375 270.386719 302.640625 270.386719 290.765625 L 270.386719 275.410156 C 270.386719 274.929688 270.167969 274.539062 269.847656 274.289062 C 269.742188 274.207031 269.621094 274.136719 269.496094 274.085938 C 269.320312 274.015625 269.132812 273.976562 268.941406 273.976562 C 268.722656 273.976562 268.5 274.027344 268.292969 274.132812 M 98.5625 274.085938 C 98.433594 274.136719 98.316406 274.207031 98.207031 274.289062 C 97.886719 274.539062 97.667969 274.929688 97.667969 275.410156 L 97.667969 290.765625 C 97.667969 302.640625 107.386719 312.359375 119.257812 312.359375 L 134.617188 312.359375 C 135.898438 312.359375 136.53125 310.800781 135.625 309.898438 L 100.132812 274.402344 C 100.019531 274.289062 99.894531 274.199219 99.765625 274.132812 C 99.554688 274.027344 99.335938 273.976562 99.113281 273.976562 C 98.925781 273.976562 98.738281 274.015625 98.5625 274.085938 "/>
</g>
</svg>
