<?xml version="1.0" encoding="UTF-8" standalone="no"?>
<svg
   width="301.76562"
   height="266.02603"
   viewBox="0 0 226.32422 199.51953"
   version="1.1"
   id="svg13"
   sodipodi:docname="Logo_empty_white_ksk.svg"
   inkscape:version="1.4.2 (f4327f4, 2025-05-13)"
   xmlns:inkscape="http://www.inkscape.org/namespaces/inkscape"
   xmlns:sodipodi="http://sodipodi.sourceforge.net/DTD/sodipodi-0.dtd"
   xmlns="http://www.w3.org/2000/svg"
   xmlns:svg="http://www.w3.org/2000/svg">
  <defs
     id="defs13" />
  <sodipodi:namedview
     id="namedview13"
     pagecolor="#ffffff"
     bordercolor="#000000"
     borderopacity="0.25"
     inkscape:showpageshadow="2"
     inkscape:pageopacity="0.0"
     inkscape:pagecheckerboard="0"
     inkscape:deskcolor="#d1d1d1"
     inkscape:document-units="px"
     inkscape:zoom="0.26149644"
     inkscape:cx="-512.43527"
     inkscape:cy="196.94341"
     inkscape:window-width="1440"
     inkscape:window-height="837"
     inkscape:window-x="-8"
     inkscape:window-y="-8"
     inkscape:window-maximized="1"
     inkscape:current-layer="surface1" />
  <g
     id="surface1"
     transform="translate(-70.867188,-112.83984)">
    <path
       style="fill:#ffffff;fill-opacity:1;fill-rule:nonzero;stroke:none"
       d="m 179.89844,113.23047 c -1.35547,0.27344 -2.70703,0.66016 -4,1.17578 -1.30469,0.52734 -2.5625,1.1875 -3.76172,1.97266 -1.19531,0.78906 -2.32813,1.70703 -3.37891,2.75 l -10.85547,10.85546 c -0.90625,0.90625 -0.27343,2.46094 1.01172,2.46094 h 50.23047 c 1.28125,0 1.91406,-1.55469 1.00781,-2.46094 l -10.85156,-10.85546 c -1.05078,-1.04297 -2.18359,-1.96094 -3.37891,-2.75 -1.19921,-0.78516 -2.46093,-1.44532 -3.76171,-1.97266 -1.29297,-0.51562 -2.64454,-0.90234 -4,-1.17578 -1.36719,-0.25781 -2.75,-0.39063 -4.13282,-0.39063 -1.3789,0 -2.76172,0.13282 -4.1289,0.39063 m 53.53906,26.41015 c -0.32031,0 -0.59375,0.0977 -0.82031,0.25391 -0.67969,0.48047 -0.86328,1.52344 -0.1836,2.20703 l 35.49219,35.49219 c 0.11328,0.11328 0.23438,0.20312 0.36719,0.27344 0.51562,0.26562 1.1289,0.17187 1.55469,-0.16016 0.21093,-0.16797 0.38281,-0.39844 0.47265,-0.67187 0.043,-0.13672 0.0664,-0.28907 0.0664,-0.44922 v -15.35938 c 0,-2.96484 -0.60547,-5.80078 -1.70313,-8.3789 -0.55078,-1.28907 -1.21875,-2.51954 -1.99609,-3.66797 -1.94531,-2.875 -4.5625,-5.25782 -7.61719,-6.92188 -3.0625,-1.67187 -6.5625,-2.61719 -10.27344,-2.61719 z m -76.25391,0 c -2.86328,0 -5.66406,0.57032 -8.25781,1.64063 -2.59375,1.07812 -4.97656,2.65625 -6.99609,4.67578 l -35.83985,35.83984 c -0.67187,0.67188 -1.30859,1.375 -1.90625,2.10938 -1.19531,1.45703 -2.23828,3.02734 -3.125,4.67969 -2.203121,4.13281 -3.390621,8.78125 -3.390621,13.54687 v 58.45313 c 0,0.3789 0.07813,0.7539 0.21875,1.10156 0.148437,0.34766 0.359375,0.66797 0.632812,0.94141 l 34.890629,34.89062 13.15234,13.16797 0.12891,0.12891 c 0.26171,0.23046 0.59375,0.35937 0.95312,0.35937 0.15625,0 0.30078,-0.0273 0.44531,-0.0703 0.043,-0.0156 0.0703,-0.0274 0.11328,-0.0469 8.27735,-3.01953 14.23438,-10.99218 14.23438,-20.29297 v -21.58593 h 43.17969 v 21.58593 c 0,9.30079 5.96093,17.27344 14.23437,20.29297 0.043,0.0195 0.0742,0.0312 0.11719,0.0469 0.14062,0.043 0.28906,0.0703 0.44531,0.0703 0.35938,0 0.69141,-0.12891 0.95313,-0.35937 l 0.1289,-0.12891 13.15235,-13.16797 34.89062,-34.89062 c 0.27344,-0.27344 0.48438,-0.59375 0.62891,-0.94141 0.14453,-0.34766 0.21875,-0.72266 0.21875,-1.10156 v -58.45313 c 0,-4.76562 -1.1836,-9.41406 -3.38672,-13.54687 -0.88672,-1.65235 -1.92578,-3.22266 -3.125,-4.67969 -0.59766,-0.73438 -1.23438,-1.4375 -1.90625,-2.10938 l -35.83984,-35.83984 c -2.02344,-2.01953 -4.40625,-3.59766 -7,-4.67578 -2.58985,-1.07031 -5.39454,-1.64063 -8.25782,-1.64063 z m 80.48438,114.42188 c -1.12891,-0.043 -2.19531,-0.30469 -3.17188,-0.73828 -0.64843,-0.28906 -1.25781,-0.66016 -1.80859,-1.08985 -0.55469,-0.43359 -1.05469,-0.93359 -1.48828,-1.48828 -1.08594,-1.38281 -1.75391,-3.10547 -1.82813,-4.98047 -0.0273,-0.75 0.0391,-1.52343 0.21094,-2.30859 0.26563,-1.19141 0.79297,-2.29687 1.51172,-3.25391 1.20312,-1.58593 2.94922,-2.7539 4.9375,-3.19531 1.96484,-0.43359 3.85156,-0.19531 5.48047,0.52735 0.64844,0.28906 1.2539,0.65625 1.80859,1.08984 1.38281,1.08203 2.42969,2.57812 2.95313,4.30469 0.20703,0.6875 0.33203,1.41015 0.35937,2.16015 0.0312,0.75 -0.0352,1.52344 -0.21094,2.3125 -0.17578,0.79297 -0.46484,1.55078 -0.85546,2.25 -0.38672,0.69532 -0.87891,1.33985 -1.4375,1.90235 -0.56641,0.5625 -1.20704,1.04687 -1.90625,1.4375 -0.69532,0.38672 -1.45313,0.67968 -2.2461,0.85547 -0.67578,0.14843 -1.33984,0.22265 -1.98828,0.22265 -0.10937,0 -0.21875,0 -0.32031,-0.008 m -107.94922,0 c -1.12891,-0.043 -2.19531,-0.30469 -3.17187,-0.73828 -0.64844,-0.28906 -1.25782,-0.66016 -1.8086,-1.08985 -0.55469,-0.43359 -1.05469,-0.93359 -1.48828,-1.48828 -1.08594,-1.38281 -1.75391,-3.10547 -1.82422,-4.98047 -0.0312,-0.75 0.0352,-1.52343 0.20703,-2.30859 0.26563,-1.19141 0.79297,-2.29687 1.51563,-3.25391 1.19922,-1.58593 2.94531,-2.7539 4.93359,-3.19531 1.96484,-0.43359 3.85547,-0.19531 5.48047,0.52735 0.64844,0.28906 1.25781,0.65625 1.80859,1.08984 1.38672,1.08203 2.42969,2.57812 2.95313,4.30469 0.20703,0.6875 0.33594,1.41015 0.36328,2.16015 0.0273,0.75 -0.0391,1.52344 -0.21484,2.3125 -0.17579,0.79297 -0.46875,1.55078 -0.85547,2.25 -0.39063,0.69532 -0.875,1.33985 -1.4375,1.90235 -0.5625,0.5625 -1.20703,1.04687 -1.90235,1.4375 -0.69922,0.38672 -1.45703,0.67968 -2.25,0.85547 -0.67578,0.14843 -1.33984,0.22265 -1.98437,0.22265 -0.11328,0 -0.21875,0 -0.32422,-0.008 m -10.46094,-114.4215 c -2.96875,0 -5.80078,0.60547 -8.3789,1.70313 -1.29297,0.54687 -2.51953,1.21875 -3.66797,1.99609 -2.875,1.94532 -5.25781,4.5625 -6.92578,7.6211 -1.667972,3.05859 -2.617191,6.55859 -2.617191,10.26562 v 15.35938 c 0,0.32031 0.09766,0.60156 0.261719,0.82422 0.476562,0.67968 1.519531,0.86718 2.203122,0.18359 L 135.625,142.10156 c 0.11328,-0.11719 0.20312,-0.23437 0.26953,-0.36328 0.26953,-0.51953 0.17969,-1.13281 -0.15625,-1.55859 -0.16797,-0.21485 -0.39844,-0.38282 -0.67187,-0.47266 -0.14063,-0.043 -0.28907,-0.0664 -0.44922,-0.0664 z m 159.21485,59.91797 c -0.375,0.15235 -0.6875,0.46094 -0.82032,0.875 -0.0469,0.13672 -0.0664,0.28907 -0.0664,0.44922 v 50.23047 c 0,0.64063 0.38672,1.12109 0.88672,1.32813 0.125,0.0469 0.25781,0.082 0.39453,0.0977 0.40625,0.0469 0.83984,-0.0781 1.17968,-0.41406 l 10.85157,-10.85547 c 1.04687,-1.05078 1.96484,-2.18359 2.7539,-3.38281 2.35547,-3.58985 3.53907,-7.73828 3.53907,-11.88672 0,-1.38672 -0.13282,-2.76563 -0.39454,-4.12891 -0.1289,-0.68359 -0.29296,-1.35937 -0.49218,-2.03125 -0.39453,-1.33203 -0.91797,-2.63672 -1.57422,-3.89453 -0.98047,-1.8789 -2.26172,-3.64453 -3.83203,-5.21875 L 280.04687,199.875 c -0.22656,-0.22656 -0.49609,-0.35547 -0.76562,-0.40625 -0.0859,-0.0117 -0.16406,-0.0195 -0.25,-0.0195 -0.19141,0 -0.38281,0.0391 -0.55859,0.10937 m -189.695316,-0.0898 c -0.273438,0.0508 -0.539063,0.17969 -0.765625,0.40625 l -10.851563,10.85156 c -1.574218,1.57422 -2.851562,3.33985 -3.832031,5.21875 -0.660156,1.25781 -1.183594,2.5625 -1.578125,3.89453 -0.195312,0.67188 -0.359375,1.34766 -0.492188,2.03125 -0.261718,1.36328 -0.390624,2.74219 -0.390624,4.12891 0,4.14844 1.179687,8.29687 3.539062,11.88672 0.789062,1.19922 1.707031,2.33203 2.753906,3.38281 l 10.851563,10.8554 c 0.339843,0.33594 0.773437,0.46094 1.175781,0.41406 0.140625,-0.0156 0.269531,-0.0508 0.394531,-0.0977 0.503907,-0.20704 0.890625,-0.6875 0.890625,-1.32813 v -50.23047 c 0,-0.16015 -0.02344,-0.3125 -0.06641,-0.44922 -0.136719,-0.41406 -0.449219,-0.72265 -0.824219,-0.875 -0.171875,-0.0703 -0.363281,-0.10937 -0.554687,-0.10937 -0.08594,0 -0.164063,0.008 -0.25,0.0195 m 179.51563,74.66406 c -0.13281,0.0664 -0.25391,0.15625 -0.36719,0.26953 l -35.49219,35.4961 c -0.90625,0.90234 -0.27343,2.46093 1.00391,2.46093 h 15.35937 c 11.875,0 21.58985,-9.71875 21.58985,-21.59375 v -15.35546 c 0,-0.48047 -0.21875,-0.8711 -0.53906,-1.1211 -0.10547,-0.082 -0.22657,-0.15234 -0.35157,-0.20312 -0.17578,-0.0703 -0.36328,-0.10938 -0.55468,-0.10938 -0.21875,0 -0.44141,0.0508 -0.64844,0.15625 M 98.5625,274.08594 c -0.128906,0.0508 -0.246094,0.12109 -0.355469,0.20312 -0.320312,0.25 -0.539062,0.64063 -0.539062,1.1211 v 15.35546 c 0,11.875 9.718751,21.59375 21.589841,21.59375 h 15.35938 c 1.28125,0 1.91406,-1.55859 1.00781,-2.46093 l -35.49219,-35.4961 c -0.11328,-0.11328 -0.238279,-0.20312 -0.367185,-0.26953 -0.210937,-0.10547 -0.429687,-0.15625 -0.652344,-0.15625 -0.1875,0 -0.375,0.0391 -0.550781,0.10938"
       id="path13" />
  </g>
</svg>
