<svg width="223" height="28" viewBox="0 0 223 28" fill="none" xmlns="http://www.w3.org/2000/svg">
<g clip-path="url(#clip0_2385_737)">
<path d="M46.6548 26.9727C45.6865 27.6674 44.4375 27.9888 43.079 27.9888C39.5846 27.9888 38.1055 26.2388 38.0929 24.4607C38.0788 22.6714 39.6787 20.854 43.079 20.854C44.3561 20.854 45.5658 21.2063 46.5327 21.8996L45.3497 22.7304C44.7308 22.2911 43.8986 22.0848 43.0776 22.0848C40.807 22.0848 39.8246 23.317 39.8387 24.4607C39.8527 25.5946 40.7522 26.7777 43.0776 26.7777C43.8972 26.7777 44.8248 26.5335 45.4437 26.083L46.6534 26.9727H46.6548Z" fill="white"/>
<path d="M53.9807 25.429C53.9807 26.817 52.677 27.9411 50.527 27.9411C48.377 27.9411 47.0859 26.817 47.0859 25.429C47.0859 24.0411 48.4037 22.917 50.513 22.917C52.6222 22.917 53.9807 24.0509 53.9807 25.429ZM48.7251 25.429C48.7251 26.1616 49.3299 26.8464 50.5256 26.8464C51.7213 26.8464 52.3261 26.1616 52.3261 25.429C52.3261 24.6965 51.6272 24.0018 50.5256 24.0018C49.3426 24.0018 48.7251 24.7049 48.7251 25.429Z" fill="white"/>
<path d="M59.9881 27.833V25.3111C59.9881 24.5786 59.4366 24.0214 58.3882 24.0214C57.3399 24.0214 56.6944 24.6375 56.6944 25.3701V27.833H55.0679V23.004H56.533L56.641 23.6594C57.3133 23.1808 57.9855 22.9366 58.8191 22.9366C60.3782 22.9366 61.6286 23.7871 61.6286 25.3027V27.8344H59.9895L59.9881 27.833Z" fill="white"/>
<path d="M67.3673 24.2951C66.8972 23.9723 66.3597 23.8657 65.7282 23.8657C64.9479 23.8657 64.5185 24.0411 64.5185 24.3442C64.5185 24.6473 64.9086 24.8326 65.7548 24.8719C67.0052 24.9308 68.591 25.1357 68.591 26.417C68.591 27.2674 67.6367 28 65.7422 28C64.6939 28 63.6456 27.8737 62.6772 27.1397L63.4842 26.2893C63.9543 26.671 65.0293 26.9545 65.7689 26.9643C66.3863 26.9741 66.9645 26.7398 66.9645 26.3875C66.9645 26.0549 66.5884 25.9188 65.6468 25.8795C64.3964 25.8107 62.9046 25.4781 62.9046 24.3835C62.9046 23.2889 64.4904 22.8777 65.7001 22.8777C66.7358 22.8777 67.5147 23.0237 68.2809 23.5134L67.3673 24.2951Z" fill="white"/>
<path d="M72.7581 22.917C74.8687 22.917 76.2258 24.0509 76.2258 25.429C76.2258 26.8071 74.9221 27.9411 72.7721 27.9411C70.6222 27.9411 69.3311 26.817 69.3311 25.429C69.3311 24.0411 70.6488 22.917 72.7581 22.917ZM72.7707 24.0018C71.5877 24.0018 70.9702 24.7063 70.9702 25.429C70.9702 26.1518 71.575 26.8464 72.7707 26.8464C73.9664 26.8464 74.5712 26.1616 74.5712 25.429C74.5712 24.6965 73.8724 24.0018 72.7707 24.0018ZM74.8814 20.9523H72.9461L71.9511 22.2813V22.3402H73.4022L74.8814 21.0014V20.9523Z" fill="white"/>
<path d="M78.8738 23.0138L78.9945 23.571C79.5053 22.9745 80.1902 22.8861 80.8624 22.8861C81.5346 22.8861 82.2068 23.0812 82.5689 23.345L81.8293 24.3807C81.4925 24.1758 81.1837 24.0678 80.6462 24.0678C79.786 24.0678 78.9931 24.4004 78.9931 25.2901V27.8316H77.3525V23.0124H78.871L78.8738 23.0138Z" fill="white"/>
<path d="M88.8735 27.2183C88.1073 27.7656 87.3003 27.9803 86.3194 27.9803C84.3968 27.9803 82.7983 27.1397 82.7983 25.429C82.7983 23.7183 84.3982 22.8777 86.3194 22.8777C87.2611 22.8777 87.9866 23.0728 88.7121 23.592L87.6764 24.3835C87.2863 24.1295 86.8036 24.0018 86.3461 24.0018C85.2444 24.0018 84.4375 24.5884 84.4375 25.429C84.4375 26.3482 85.2977 26.8366 86.3194 26.8366C86.8443 26.8366 87.3677 26.7285 87.7705 26.4352L88.8721 27.2169L88.8735 27.2183Z" fill="white"/>
<path d="M91.3874 21.6554C91.3874 22.5844 89.4521 22.5844 89.4521 21.6554C89.4521 20.7263 91.3874 20.7263 91.3874 21.6554ZM89.5995 27.833H91.2386V22.9942H89.5995V27.833Z" fill="white"/>
<path d="M99.4509 25.429C99.4509 26.817 98.1472 27.9411 95.9972 27.9411C93.8472 27.9411 92.5562 26.817 92.5562 25.429C92.5562 24.0411 93.8739 22.917 95.9832 22.917C98.0924 22.917 99.4509 24.0509 99.4509 25.429ZM94.1953 25.429C94.1953 26.1616 94.8001 26.8464 95.9958 26.8464C97.1915 26.8464 97.7963 26.1616 97.7963 25.429C97.7963 24.6965 97.0974 24.0018 95.9958 24.0018C94.8128 24.0018 94.1953 24.7049 94.1953 25.429Z" fill="white"/>
<path fill-rule="evenodd" clip-rule="evenodd" d="M38.0874 17.6768H43.068L47.9503 14.3747L48.3909 14.7957L49.7045 15.9703C51.0208 17.1028 52.4958 17.653 54.2135 17.653H58.5682C55.7179 15.2658 54.7917 14.4687 51.9414 12.0816L51.9527 12.0732L51.6888 11.8458L58.825 7.01824H53.3701L43.3374 13.8063V3.74137H38.0888V17.6768H38.0874Z" fill="white"/>
<path fill-rule="evenodd" clip-rule="evenodd" d="M78.689 17.6768H83.6695L88.5518 14.3747L88.9925 14.7957L90.306 15.9703C91.6224 17.1028 93.0973 17.653 94.8151 17.653H99.1697C96.3195 15.2658 95.3932 14.4687 92.543 12.0816L92.5542 12.0732L92.2904 11.8458L99.4265 7.01824H93.9716L83.939 13.8063V3.74137H78.6904V17.6768H78.689Z" fill="white"/>
<path fill-rule="evenodd" clip-rule="evenodd" d="M75.4769 17.653H66.5908V17.66H58.5551L59.6848 16.4938C60.3472 15.8089 61.185 15.3767 62.1477 15.3136H72.5551C73.0435 15.3136 73.442 14.9122 73.442 14.421C73.442 13.9298 73.0421 13.5285 72.5551 13.5285H61.766C59.9992 13.5285 58.5537 12.0732 58.5537 10.2965C58.5537 8.51985 59.9992 7.06456 61.766 7.06456H70.6507L69.5505 7.01965H78.6864L78.6429 7.06456H78.6864L78.6219 7.08701L77.5553 8.20409C76.8929 8.89876 76.0551 9.33942 75.0924 9.40397H64.685C64.1981 9.40397 63.7981 9.80674 63.7981 10.2965C63.7981 10.7863 64.1967 11.1891 64.685 11.1891H75.4741C77.241 11.1891 78.6864 12.6443 78.6864 14.421C78.6864 16.1991 77.2396 17.653 75.4741 17.653" fill="white"/>
<path d="M3.88593 22.6293C3.86768 22.6363 3.85225 22.6461 3.83681 22.6574C3.7919 22.6925 3.76103 22.7472 3.76103 22.8146V24.9701C3.76103 26.6359 5.1251 28 6.7909 28H8.94647C9.1261 28 9.21592 27.7825 9.08821 27.6548L4.10766 22.6742C4.09222 22.6574 4.07398 22.6462 4.05573 22.6363C4.02626 22.6209 3.99539 22.6139 3.96451 22.6139C3.93785 22.6139 3.91119 22.6195 3.88733 22.6293M27.7067 22.6349C27.6884 22.6447 27.6716 22.656 27.6548 22.6728L22.6742 27.6534C22.5465 27.7797 22.6363 27.9986 22.816 27.9986H24.9715C26.6373 27.9986 28.0014 26.6345 28.0014 24.9687V22.8132C28.0014 22.7458 27.9705 22.6911 27.9256 22.656C27.9102 22.6447 27.8947 22.6349 27.8765 22.6279C27.8512 22.6181 27.826 22.6125 27.7993 22.6125C27.7684 22.6125 27.7376 22.6195 27.7081 22.6349M2.51343 12.1574C2.47554 12.1644 2.43765 12.1826 2.40537 12.2149L0.882718 13.7376C0.66239 13.9593 0.482759 14.2063 0.345229 14.4701C0.252606 14.647 0.179631 14.8294 0.123496 15.0174C0.095429 15.1115 0.0729751 15.2069 0.0547314 15.3023C0.0182438 15.4932 0 15.6868 0 15.8819C0 16.4643 0.165597 17.0467 0.496792 17.5505C0.607658 17.7189 0.735365 17.8775 0.882718 18.0249L2.40537 19.5489C2.45309 19.5966 2.51343 19.6135 2.57097 19.6079C2.59062 19.6051 2.60886 19.6008 2.6257 19.5938C2.69587 19.5644 2.7506 19.497 2.7506 19.4072V12.3581C2.7506 12.3356 2.74779 12.3146 2.74078 12.2949C2.72253 12.2374 2.67763 12.1939 2.6257 12.1728C2.60184 12.163 2.57518 12.1574 2.54852 12.1574C2.53729 12.1574 2.52606 12.1574 2.51343 12.1602M29.1353 12.17C29.082 12.1911 29.0385 12.2346 29.0202 12.2921C29.0146 12.3117 29.0104 12.3328 29.0104 12.3553V19.4044C29.0104 19.4942 29.0652 19.5615 29.1353 19.591C29.1522 19.598 29.1718 19.6022 29.1901 19.6051C29.2476 19.6121 29.3079 19.5938 29.3556 19.5461L30.8783 18.0221C31.0257 17.8747 31.1534 17.7161 31.2642 17.5477C31.5954 17.0439 31.761 16.4615 31.761 15.8791C31.761 15.6854 31.7428 15.4904 31.7063 15.2995C31.688 15.2041 31.6642 15.1087 31.6375 15.0146C31.5828 14.8266 31.5084 14.6441 31.4172 14.4673C31.2797 14.2035 31.1 13.9565 30.8797 13.7348L29.3571 12.2121C29.3248 12.1798 29.2869 12.1616 29.249 12.1546C29.2378 12.1532 29.2265 12.1518 29.2139 12.1518C29.1872 12.1518 29.1606 12.1574 29.1353 12.1672M6.7909 3.76103C6.3741 3.76103 5.97694 3.84663 5.61487 3.9996C5.43384 4.07538 5.26123 4.17081 5.09984 4.27887C4.69707 4.55253 4.36167 4.91881 4.12731 5.34824C3.89294 5.77767 3.75962 6.26885 3.75962 6.78949V8.94507C3.75962 8.98998 3.77366 9.02927 3.79611 9.06014C3.86347 9.15557 4.00942 9.18083 4.10485 9.0854L9.0854 4.10485C9.10084 4.08941 9.11347 4.07257 9.1233 4.05433C9.16119 3.98135 9.14856 3.89575 9.10084 3.8354C9.07698 3.80593 9.04471 3.78208 9.00682 3.76945C8.98717 3.76383 8.96612 3.75962 8.94366 3.75962H6.78809L6.7909 3.76103ZM8.25882 19.8184C8.10024 19.8127 7.95148 19.7763 7.81395 19.7145C7.72273 19.6738 7.63713 19.6219 7.55994 19.5615C7.48135 19.5012 7.41259 19.431 7.35084 19.3524C7.19928 19.1588 7.10525 18.916 7.09543 18.6536C7.09122 18.5483 7.09964 18.4403 7.1249 18.3294C7.16139 18.1624 7.23577 18.0066 7.33681 17.8733C7.50521 17.6502 7.7508 17.486 8.02867 17.4256C8.30373 17.3639 8.57037 17.3976 8.79771 17.5C8.88893 17.5407 8.97454 17.5912 9.05172 17.653C9.24679 17.8045 9.39274 18.015 9.46572 18.2564C9.49519 18.3532 9.51203 18.4543 9.51624 18.5595C9.52045 18.6648 9.51062 18.7729 9.48677 18.8837C9.46151 18.996 9.42081 19.1012 9.36608 19.1995C9.31135 19.2977 9.24399 19.3875 9.16399 19.4661C9.0854 19.5447 8.99559 19.6135 8.89735 19.6682C8.79912 19.7229 8.69246 19.7636 8.5816 19.7889C8.48617 19.8099 8.39354 19.8198 8.30233 19.8198C8.28689 19.8198 8.27145 19.8198 8.25742 19.8198M23.4082 19.8184C23.2496 19.8127 23.1008 19.7763 22.9633 19.7145C22.8721 19.6738 22.7865 19.6219 22.7093 19.5615C22.6321 19.5012 22.5619 19.431 22.5002 19.3524C22.3486 19.1588 22.2546 18.916 22.2434 18.6536C22.2392 18.5483 22.249 18.4403 22.2729 18.3294C22.3093 18.1624 22.3837 18.0066 22.4848 17.8733C22.6532 17.6502 22.8988 17.486 23.178 17.4256C23.4545 17.3639 23.7183 17.3976 23.9471 17.5C24.0383 17.5407 24.1225 17.5912 24.2011 17.653C24.3947 17.8045 24.5421 18.015 24.6151 18.2564C24.6445 18.3532 24.6614 18.4543 24.6656 18.5595C24.6698 18.6648 24.66 18.7729 24.6361 18.8837C24.6109 18.996 24.5702 19.1012 24.5154 19.1995C24.4607 19.2977 24.3919 19.3875 24.3134 19.4661C24.2348 19.5447 24.1449 19.6135 24.0467 19.6682C23.9499 19.7229 23.8432 19.7636 23.731 19.7889C23.6355 19.8099 23.5429 19.8198 23.4517 19.8198C23.4362 19.8198 23.4208 19.8198 23.4068 19.8198M12.1139 3.76103C11.7125 3.76103 11.3196 3.84102 10.9547 3.99118C10.5912 4.14274 10.2558 4.36307 9.97233 4.64795L4.94266 9.67763C4.84864 9.77165 4.75882 9.87129 4.67602 9.97374C4.50762 10.1786 4.36167 10.399 4.23817 10.6305C3.92943 11.2101 3.76243 11.8627 3.76243 12.5321V20.7348C3.76243 20.7881 3.77366 20.84 3.7933 20.8891C3.81435 20.9383 3.84382 20.9832 3.88172 21.021L8.77807 25.9174L10.6235 27.7656L10.6417 27.7839C10.6782 27.8162 10.7245 27.8344 10.7751 27.8344C10.7975 27.8344 10.8172 27.8302 10.8382 27.8246C10.8438 27.8218 10.848 27.8204 10.8536 27.8176C12.0156 27.3937 12.8506 26.2753 12.8506 24.9701V21.9403H18.9104V24.9701C18.9104 26.2753 19.7468 27.3937 20.9088 27.8176C20.9144 27.8204 20.9186 27.8218 20.9256 27.8246C20.9453 27.8302 20.9663 27.8344 20.9888 27.8344C21.0393 27.8344 21.0856 27.8162 21.1221 27.7839L21.1403 27.7656L22.9858 25.9174L27.8821 21.021C27.92 20.9832 27.9509 20.9383 27.9705 20.8891C27.9916 20.84 28.0014 20.7881 28.0014 20.7348V12.5321C28.0014 11.8627 27.8358 11.2101 27.5257 10.6305C27.4022 10.399 27.2548 10.1786 27.0878 9.97374C27.0036 9.87129 26.9152 9.77306 26.8212 9.67763L21.7915 4.64795C21.508 4.36447 21.174 4.14274 20.8091 3.99118C20.4457 3.84102 20.0513 3.76103 19.65 3.76103H12.1153H12.1139ZM22.8146 3.76103C22.7696 3.76103 22.7304 3.77506 22.6995 3.79611C22.604 3.86347 22.5788 4.00942 22.6742 4.10625L27.6548 9.08681C27.6702 9.10224 27.6884 9.11487 27.7067 9.1247C27.7797 9.16259 27.8653 9.14856 27.9242 9.10224C27.9537 9.07839 27.9775 9.04611 27.9902 9.00822C27.9958 8.98857 28 8.96752 28 8.94507V6.78949C28 6.37269 27.9158 5.97554 27.7614 5.61347C27.6842 5.43244 27.5902 5.25982 27.4808 5.09844C27.2071 4.69567 26.8408 4.36026 26.4114 4.12731C25.982 3.89294 25.4908 3.75962 24.9701 3.75962H22.8146V3.76103ZM15.3009 0.0547314C15.1101 0.0926223 14.9206 0.147354 14.7396 0.220329C14.5571 0.294707 14.3803 0.385926 14.2119 0.496792C14.0435 0.607658 13.8849 0.736768 13.7376 0.882719L12.2149 2.40537C12.0872 2.53308 12.177 2.7506 12.3567 2.7506H19.4058C19.5854 2.7506 19.6738 2.53308 19.5475 2.40537L18.0249 0.882719C17.8775 0.736768 17.7189 0.607658 17.5505 0.496792C17.3821 0.385926 17.2053 0.293304 17.0229 0.220329C16.8418 0.147354 16.651 0.0940257 16.4615 0.0547314C16.2692 0.0182438 16.0756 0 15.8819 0C15.6883 0 15.4946 0.0182438 15.3023 0.0547314" fill="white"/>
</g>
<line x1="118.194" y1="2" x2="118.194" y2="26" stroke="white" stroke-opacity="0.25" stroke-width="0.914286"/>
<g clip-path="url(#clip1_2385_737)">
<path d="M185.584 2.57143C186.045 2.57143 186.137 2.62668 186.137 4.24741V5.73921C186.137 7.28628 186.008 7.47045 185.584 7.47045H180.409V24.9117C180.409 25.2984 179.912 25.3905 178.181 25.3905H177.26C175.492 25.3905 175.197 25.2984 175.197 24.9117V7.47045H170.022C169.598 7.47045 169.469 7.34152 169.469 5.73921V4.24741C169.469 2.57143 169.561 2.57143 170.022 2.57143H185.584ZM194.867 3.0687C194.867 2.73719 194.388 2.57143 192.712 2.57143H191.736C189.968 2.57143 189.673 2.71877 189.673 3.0687V24.9301C189.673 25.3169 189.968 25.4089 191.736 25.4089H192.712C194.388 25.4089 194.867 25.3169 194.867 24.9301V3.0687ZM220.135 2.57143H218.607C216.654 2.57143 216.544 2.79244 216.378 3.12395L213.358 10.362C212.345 12.7747 211.313 15.353 210.927 16.6976C210.558 15.353 209.895 13.5666 208.496 10.2331L205.494 3.12395C205.309 2.70035 204.554 2.57143 202.897 2.57143H201.202C199.526 2.57143 199.195 2.71877 199.195 3.0687V24.9301C199.195 25.3169 199.526 25.4089 201.258 25.4089H202.197C203.91 25.4089 204.389 25.3169 204.389 24.9301V11.9459H204.517C204.517 11.9459 204.665 12.5536 204.923 13.1062L208.385 21.2282C208.532 21.5966 208.717 21.7439 210.337 21.7439H211.369C213.008 21.7439 213.137 21.615 213.284 21.2282L216.452 13.4008C216.747 12.6641 216.968 11.9459 216.968 11.9459H217.097V24.9117C217.097 25.2984 217.428 25.3905 219.233 25.3905H220.154C221.83 25.3905 222.309 25.2984 222.309 24.9117V3.0687C222.309 2.71877 221.811 2.57143 220.135 2.57143Z" fill="white"/>
<path d="M162.046 7.47045H137.349C136.98 7.47045 136.649 7.32311 136.409 7.08368C136.17 6.84425 136.022 6.51274 136.022 6.16281V3.89748C136.022 3.52913 136.17 3.21604 136.409 2.97661C136.667 2.71877 136.98 2.57143 137.349 2.57143H162.046C162.415 2.57143 162.746 2.71877 162.986 2.95819C163.225 3.19762 163.372 3.51072 163.372 3.87906V6.12598C163.372 6.49433 163.225 6.80742 162.986 7.04685C162.746 7.30469 162.415 7.47045 162.046 7.47045ZM146.962 11.5407H137.349C136.98 11.5407 136.649 11.688 136.428 11.9275C136.188 12.1669 136.041 12.4984 136.041 12.8483V15.0952C136.041 15.4635 136.188 15.7951 136.428 16.0161C136.667 16.2555 136.999 16.4029 137.367 16.4029H146.981V11.5407H146.962ZM162.986 11.9459C162.746 11.7064 162.415 11.5591 162.046 11.5591H152.432V16.4397H162.046C162.415 16.4397 162.746 16.2923 162.986 16.0529C163.225 15.8135 163.372 15.4819 163.372 15.1321V12.8667C163.372 12.4984 163.225 12.1669 162.986 11.9459ZM162.986 20.9151C162.746 20.6757 162.415 20.5283 162.046 20.5283H152.432V25.4089H162.046C162.415 25.4089 162.746 25.2616 162.986 25.0222C163.225 24.7827 163.372 24.4512 163.372 24.1014V21.8544C163.372 21.4861 163.225 21.1545 162.986 20.9151ZM146.962 20.5283H137.349C136.98 20.5283 136.649 20.6757 136.428 20.9151C136.188 21.1545 136.041 21.4861 136.041 21.836V24.0829C136.041 24.4512 136.188 24.7827 136.428 25.0038C136.667 25.2432 136.999 25.3905 137.367 25.3905H146.981V20.5283H146.962Z" fill="white"/>
</g>
<defs>
<clipPath id="clip0_2385_737">
<rect width="99.4511" height="28" fill="white"/>
</clipPath>
<clipPath id="clip1_2385_737">
<rect width="86.8571" height="22.8571" fill="white" transform="translate(136.022 2.57143)"/>
</clipPath>
</defs>
</svg>
