<svg width="24" height="25" viewBox="0 0 24 25" fill="none" xmlns="http://www.w3.org/2000/svg">
<mask id="mask0_2025_1703" style="mask-type:alpha" maskUnits="userSpaceOnUse" x="0" y="0" width="24" height="25">
<rect y="0.833496" width="24" height="24" fill="#D9D9D9"/>
</mask>
<g mask="url(#mask0_2025_1703)">
<path d="M17.35 20.8335L13.825 17.2835L15.225 15.8835L17.35 18.0085L21.6 13.7585L23 15.1835L17.35 20.8335ZM2 22.8335V4.8335C2 4.2835 2.19583 3.81266 2.5875 3.421C2.97917 3.02933 3.45 2.8335 4 2.8335H20C20.55 2.8335 21.0208 3.02933 21.4125 3.421C21.8042 3.81266 22 4.2835 22 4.8335V11.8335H20V4.8335H4V17.9585L5.15 16.8335H12V18.8335H6L2 22.8335Z" fill="#1877F2"/>
</g>
</svg>
