<svg width="24" height="24" viewBox="0 0 24 24" fill="none" xmlns="http://www.w3.org/2000/svg">
<mask id="mask0_2385_452" style="mask-type:alpha" maskUnits="userSpaceOnUse" x="0" y="0" width="24" height="24">
<rect width="24" height="24" fill="#D9D9D9"/>
</mask>
<g mask="url(#mask0_2385_452)">
<path d="M14.3499 8.55005C14.1499 8.05005 13.8541 7.65838 13.4624 7.37505C13.0707 7.09172 12.5999 6.95005 12.0499 6.95005C11.7499 6.95005 11.4582 6.99172 11.1749 7.07505C10.8916 7.15838 10.6332 7.31672 10.3999 7.55005L8.9499 6.10005C9.18324 5.86672 9.4999 5.65422 9.8999 5.46255C10.2999 5.27088 10.6666 5.15005 10.9999 5.10005V3.00005H12.9999V5.05005C13.7499 5.20005 14.4082 5.50422 14.9749 5.96255C15.5416 6.42088 15.9666 7.01672 16.2499 7.75005L14.3499 8.55005ZM19.7999 22.6L15.1999 18.0001C14.9499 18.2501 14.6082 18.4542 14.1749 18.6125C13.7416 18.7709 13.3499 18.8667 12.9999 18.9001V21H10.9999V18.85C10.0666 18.6167 9.2874 18.1917 8.6624 17.5751C8.0374 16.9584 7.58324 16.1834 7.2999 15.25L9.2999 14.45C9.4999 15.15 9.8374 15.75 10.3124 16.25C10.7874 16.75 11.4166 17.0001 12.1999 17.0001C12.4999 17.0001 12.7749 16.9626 13.0249 16.8876C13.2749 16.8126 13.5166 16.7 13.7499 16.55L1.3999 4.20005L2.7999 2.80005L21.1999 21.2001L19.7999 22.6Z" fill="#1877F2"/>
</g>
</svg>
