<svg width="21" height="21" viewBox="0 0 21 21" fill="none" xmlns="http://www.w3.org/2000/svg">
<g clip-path="url(#clip0_2507_2742)">
<path d="M5.36111 2.6505C5.36517 3.16918 5.16493 3.66862 4.80367 4.04082C4.44241 4.41303 3.94918 4.62809 3.43061 4.6395C2.91312 4.6207 2.42265 4.40379 2.06056 4.03361C1.69847 3.66343 1.49246 3.16827 1.48511 2.6505C1.50747 2.14591 1.72097 1.66872 2.08227 1.31577C2.44358 0.962823 2.92563 0.760551 3.43061 0.75C3.9341 0.760753 4.41444 0.963532 4.77332 1.31683C5.13219 1.67014 5.34247 2.14724 5.36111 2.6505ZM1.69361 8.1735C1.69361 7.0305 2.42111 7.209 3.43061 7.209C4.44011 7.209 5.15261 7.0305 5.15261 8.1735V19.3095C5.15261 20.4675 4.42511 20.2305 3.43061 20.2305C2.43611 20.2305 1.69361 20.4675 1.69361 19.3095V8.1735ZM8.15261 8.175C8.15261 7.536 8.38961 7.2975 8.76011 7.224C9.13061 7.1505 10.4086 7.224 10.8541 7.224C11.2996 7.224 11.4781 7.9515 11.4631 8.5005C11.8446 7.98974 12.3505 7.58514 12.9326 7.3252C13.5147 7.06526 14.1536 6.95865 14.7886 7.0155C15.4122 6.97742 16.0369 7.07094 16.622 7.28999C17.2071 7.50903 17.7396 7.84871 18.185 8.28694C18.6303 8.72518 18.9784 9.25218 19.2068 9.83373C19.4352 10.4153 19.5387 11.0383 19.5106 11.6625V19.2645C19.5106 20.4225 18.7981 20.1855 17.7871 20.1855C16.7776 20.1855 16.0651 20.4225 16.0651 19.2645V13.326C16.0913 13.0204 16.0513 12.7128 15.9481 12.424C15.8448 12.1352 15.6805 11.872 15.4665 11.6523C15.2525 11.4326 14.9937 11.2615 14.7078 11.1507C14.4218 11.0399 14.1153 10.9919 13.8091 11.01C13.5041 11.002 13.2009 11.0589 12.9196 11.1769C12.6382 11.2949 12.3852 11.4714 12.1773 11.6947C11.9693 11.918 11.8112 12.1829 11.7135 12.4719C11.6157 12.7609 11.5804 13.0674 11.6101 13.371V19.3095C11.6101 20.4675 10.8826 20.2305 9.87311 20.2305C8.86361 20.2305 8.15111 20.4675 8.15111 19.3095V8.1735L8.15261 8.175Z" stroke="#0270FD" stroke-width="1.5" stroke-linecap="round" stroke-linejoin="round"/>
</g>
<defs>
<clipPath id="clip0_2507_2742">
<rect width="21" height="21" fill="white"/>
</clipPath>
</defs>
</svg>
