<svg width="24" height="25" viewBox="0 0 24 25" fill="none" xmlns="http://www.w3.org/2000/svg">
<mask id="mask0_2025_1711" style="mask-type:alpha" maskUnits="userSpaceOnUse" x="0" y="0" width="24" height="25">
<rect y="0.166748" width="24" height="24" fill="#D9D9D9"/>
</mask>
<g mask="url(#mask0_2025_1711)">
<path d="M10.475 22.1667C10.0084 22.1667 9.57088 22.0667 9.16255 21.8667C8.75422 21.6667 8.40838 21.3834 8.12505 21.0167L2.67505 14.0917L3.15005 13.5917C3.48338 13.2417 3.88338 13.0334 4.35005 12.9667C4.81672 12.9001 5.25005 12.9917 5.65005 13.2417L7.50005 14.3667V6.16675C7.50005 5.88341 7.59588 5.64591 7.78755 5.45425C7.97922 5.26258 8.21672 5.16675 8.50005 5.16675C8.78338 5.16675 9.02505 5.26258 9.22505 5.45425C9.42505 5.64591 9.52505 5.88341 9.52505 6.16675V17.9667L7.10005 16.4667L9.70005 19.7917C9.80005 19.9084 9.91672 20.0001 10.05 20.0667C10.1834 20.1334 10.325 20.1667 10.475 20.1667H16C16.55 20.1667 17.0209 19.9709 17.4125 19.5792C17.8042 19.1876 18 18.7167 18 18.1667V14.1667C18 13.8834 17.9042 13.6459 17.7125 13.4542C17.5209 13.2626 17.2834 13.1667 17 13.1667H11.525V11.1667H17C17.8334 11.1667 18.5417 11.4584 19.125 12.0417C19.7084 12.6251 20 13.3334 20 14.1667V18.1667C20 19.2667 19.6084 20.2084 18.825 20.9917C18.0417 21.7751 17.1 22.1667 16 22.1667H10.475ZM4.17505 8.66675C3.95838 8.30008 3.79172 7.90425 3.67505 7.47925C3.55838 7.05425 3.50005 6.61675 3.50005 6.16675C3.50005 4.78341 3.98755 3.60425 4.96255 2.62925C5.93755 1.65425 7.11672 1.16675 8.50005 1.16675C9.88338 1.16675 11.0625 1.65425 12.0375 2.62925C13.0125 3.60425 13.5 4.78341 13.5 6.16675C13.5 6.61675 13.4417 7.05425 13.325 7.47925C13.2084 7.90425 13.0417 8.30008 12.825 8.66675L11.1 7.66675C11.2334 7.43341 11.3334 7.19591 11.4 6.95425C11.4667 6.71258 11.5 6.45008 11.5 6.16675C11.5 5.33341 11.2084 4.62508 10.625 4.04175C10.0417 3.45841 9.33338 3.16675 8.50005 3.16675C7.66672 3.16675 6.95838 3.45841 6.37505 4.04175C5.79172 4.62508 5.50005 5.33341 5.50005 6.16675C5.50005 6.45008 5.53338 6.71258 5.60005 6.95425C5.66672 7.19591 5.76672 7.43341 5.90005 7.66675L4.17505 8.66675Z" fill="#1877F2"/>
</g>
</svg>
